<?xml version="1.0" encoding="utf-8"?>
<!-- Generator: Adobe Illustrator 24.0.2, SVG Export Plug-In . SVG Version: 6.00 Build 0)  -->
<svg version="1.1" id="Слой_1" xmlns="http://www.w3.org/2000/svg" xmlns:xlink="http://www.w3.org/1999/xlink" x="0px" y="0px"
	 viewBox="0 0 149.11 149.54" style="enable-background:new 0 0 149.11 149.54;" xml:space="preserve">
<style type="text/css">
	.st0{fill:none;stroke:#3B6EB5;stroke-width:2;stroke-miterlimit:10;}
	.st1{fill:#FFFFFF;}
</style>
<path id="Border_2_" class="st0" d="M126.74,113.6H22.29c-2.76,0-5-2.24-5-5l0-102.58c0-2.76,2.24-5,5-5h104.45c2.76,0,5,2.24,5,5
	V108.6C131.74,111.36,129.5,113.6,126.74,113.6z"/>
<polygon id="FM" class="st1" points="102.64,32.3 91.32,67.1 79.97,32.3 65.98,32.3 63.87,32.3 30.25,32.3 30.25,82.32 42.51,82.32 
	42.51,62.39 60.57,62.39 60.57,53.12 42.51,53.12 42.51,41.61 63.87,41.61 63.87,82.32 76.13,82.32 76.13,70.64 74.94,46.69 
	87.27,82.32 95.38,82.32 107.67,46.73 106.48,70.64 106.48,82.32 118.78,82.32 118.78,32.3 "/>
<g id="fridge_master_1_">
	<path class="st1" d="M1.72,144.97v-9.06h-1.7v-2.5h1.7v-0.92c0-1.32,0.39-2.34,1.18-3.07c0.79-0.73,1.9-1.09,3.32-1.09
		c0.52,0,1.09,0.07,1.72,0.22l0.01,2.65c-0.22-0.06-0.52-0.1-0.9-0.1c-1.11,0-1.66,0.47-1.66,1.41v0.89h2.29v2.5H5.39v9.06H1.72z"/>
	<path class="st1" d="M17.18,136.67l-1.2-0.09c-1.15,0-1.89,0.35-2.21,1.07v7.31H10.1v-11.55h3.43l0.12,1.48
		c0.62-1.13,1.47-1.7,2.57-1.7c0.39,0,0.73,0.04,1.02,0.13L17.18,136.67z"/>
	<path class="st1" d="M19.58,130.44c0-0.51,0.19-0.93,0.56-1.26c0.38-0.33,0.87-0.49,1.47-0.49c0.6,0,1.09,0.16,1.47,0.49
		c0.38,0.33,0.56,0.75,0.56,1.26c0,0.51-0.19,0.93-0.56,1.26c-0.38,0.33-0.87,0.49-1.47,0.49c-0.6,0-1.09-0.16-1.47-0.49
		C19.77,131.37,19.58,130.95,19.58,130.44z M23.47,144.97H19.8v-11.55h3.67V144.97z"/>
	<path class="st1" d="M26.37,139.11c0-1.83,0.4-3.27,1.21-4.33c0.8-1.05,1.92-1.58,3.36-1.58c1.05,0,1.93,0.41,2.65,1.22v-5.85h3.67
		v16.4h-3.29l-0.18-1.24c-0.75,0.97-1.71,1.45-2.87,1.45c-1.4,0-2.51-0.53-3.32-1.58C26.78,142.55,26.37,141.05,26.37,139.11z
		 M30.03,139.33c0,2.05,0.61,3.08,1.82,3.08c0.81,0,1.39-0.34,1.74-1V137c-0.33-0.68-0.9-1.03-1.71-1.03c-1.13,0-1.74,0.9-1.84,2.69
		L30.03,139.33z"/>
	<path class="st1" d="M40.02,139.11c0-1.17,0.19-2.2,0.58-3.1c0.39-0.9,0.95-1.59,1.68-2.08c0.73-0.49,1.58-0.73,2.55-0.73
		c1.22,0,2.18,0.41,2.87,1.22l0.13-1h3.32v11.12c0,1.02-0.24,1.9-0.72,2.65s-1.18,1.33-2.09,1.73s-1.97,0.6-3.17,0.6
		c-0.86,0-1.7-0.16-2.5-0.48c-0.81-0.32-1.42-0.74-1.85-1.25l1.53-2.11c0.68,0.79,1.58,1.18,2.69,1.18c1.62,0,2.43-0.82,2.43-2.45
		v-0.36c-0.7,0.76-1.59,1.14-2.66,1.14c-1.43,0-2.59-0.54-3.47-1.62c-0.88-1.08-1.32-2.52-1.32-4.33V139.11z M43.69,139.33
		c0,0.95,0.18,1.7,0.54,2.25c0.36,0.55,0.87,0.83,1.52,0.83c0.79,0,1.36-0.26,1.73-0.78v-4.86c-0.35-0.53-0.92-0.79-1.71-0.79
		c-0.65,0-1.16,0.29-1.53,0.86C43.87,137.41,43.69,138.24,43.69,139.33z"/>
	<path class="st1" d="M60.03,145.18c-1.8,0-3.26-0.53-4.37-1.59c-1.12-1.06-1.67-2.43-1.67-4.13v-0.3c0-1.18,0.22-2.22,0.67-3.13
		c0.45-0.9,1.1-1.6,1.95-2.1s1.87-0.74,3.04-0.74c1.65,0,2.95,0.5,3.91,1.51c0.96,1.01,1.43,2.41,1.43,4.21v1.4h-7.27
		c0.13,0.65,0.42,1.16,0.86,1.53c0.44,0.37,1.01,0.56,1.71,0.56c1.16,0,2.06-0.4,2.72-1.2l1.67,1.94c-0.45,0.62-1.1,1.11-1.94,1.48
		C61.89,145,60.99,145.18,60.03,145.18z M59.62,135.98c-1.07,0-1.71,0.7-1.91,2.09h3.69v-0.28c0.02-0.58-0.13-1.02-0.44-1.34
		C60.64,136.14,60.2,135.98,59.62,135.98z"/>
	<path class="st1" d="M77.67,133.42l0.12,1.36c0.83-1.04,1.95-1.57,3.35-1.57c1.48,0,2.49,0.58,3.01,1.74
		c0.8-1.16,1.95-1.74,3.45-1.74c2.38,0,3.6,1.42,3.67,4.25v7.52H87.6v-7.29c0-0.59-0.1-1.02-0.3-1.29c-0.2-0.27-0.57-0.41-1.11-0.41
		c-0.72,0-1.26,0.32-1.62,0.95l0.01,0.15v7.89h-3.67v-7.27c0-0.61-0.1-1.04-0.29-1.31c-0.19-0.27-0.57-0.41-1.12-0.41
		c-0.7,0-1.24,0.32-1.61,0.95v8.04h-3.66v-11.55H77.67z"/>
	<path class="st1" d="M101.09,144.97c-0.13-0.23-0.25-0.58-0.35-1.03c-0.67,0.83-1.61,1.25-2.82,1.25c-1.11,0-2.05-0.33-2.82-0.99
		c-0.77-0.66-1.16-1.49-1.16-2.48c0-1.25,0.47-2.2,1.41-2.84c0.94-0.64,2.31-0.96,4.1-0.96h1.13v-0.61c0-1.07-0.47-1.6-1.4-1.6
		c-0.87,0-1.3,0.42-1.3,1.27h-3.66c0-1.12,0.48-2.02,1.45-2.72c0.97-0.7,2.2-1.04,3.7-1.04c1.5,0,2.68,0.36,3.55,1.08
		c0.87,0.72,1.31,1.7,1.34,2.96v5.12c0.01,1.06,0.18,1.87,0.5,2.43v0.18H101.09z M98.8,142.62c0.46,0,0.84-0.1,1.14-0.29
		c0.3-0.19,0.51-0.41,0.64-0.65v-1.85h-1.06c-1.27,0-1.91,0.56-1.91,1.69c0,0.33,0.11,0.59,0.34,0.8
		C98.16,142.52,98.45,142.62,98.8,142.62z"/>
	<path class="st1" d="M113.53,141.72c0-0.31-0.16-0.55-0.49-0.74c-0.33-0.19-0.95-0.38-1.86-0.58c-0.91-0.2-1.66-0.46-2.26-0.78
		c-0.59-0.32-1.05-0.72-1.36-1.18c-0.31-0.46-0.47-0.99-0.47-1.59c0-1.06,0.45-1.94,1.34-2.62c0.89-0.69,2.06-1.03,3.5-1.03
		c1.55,0,2.79,0.34,3.73,1.04c0.94,0.69,1.41,1.6,1.41,2.72h-3.67c0-0.92-0.5-1.39-1.49-1.39c-0.38,0-0.7,0.11-0.97,0.32
		c-0.26,0.21-0.39,0.47-0.39,0.79c0,0.32,0.16,0.58,0.48,0.78c0.32,0.2,0.83,0.36,1.52,0.49s1.31,0.28,1.84,0.46
		c1.77,0.6,2.65,1.67,2.65,3.22c0,1.05-0.48,1.91-1.43,2.57c-0.95,0.66-2.18,0.99-3.7,0.99c-1.01,0-1.9-0.18-2.69-0.53
		s-1.4-0.84-1.85-1.45c-0.44-0.61-0.66-1.26-0.66-1.93h3.42c0.02,0.54,0.2,0.92,0.54,1.17c0.35,0.25,0.79,0.37,1.34,0.37
		c0.5,0,0.87-0.1,1.12-0.3C113.41,142.3,113.53,142.04,113.53,141.72z"/>
	<path class="st1" d="M124.14,130.54v2.87h1.93v2.5h-1.93v5.29c0,0.43,0.08,0.74,0.24,0.91c0.16,0.17,0.47,0.26,0.95,0.26
		c0.36,0,0.67-0.02,0.91-0.06v2.57c-0.66,0.21-1.35,0.31-2.06,0.31c-1.26,0-2.19-0.29-2.79-0.88c-0.6-0.58-0.9-1.47-0.9-2.66v-5.73
		h-1.5v-2.5h1.5v-2.87H124.14z"/>
	<path class="st1" d="M134.31,145.18c-1.8,0-3.26-0.53-4.37-1.59c-1.12-1.06-1.67-2.43-1.67-4.13v-0.3c0-1.18,0.22-2.22,0.67-3.13
		c0.45-0.9,1.1-1.6,1.95-2.1s1.87-0.74,3.04-0.74c1.65,0,2.95,0.5,3.91,1.51c0.96,1.01,1.43,2.41,1.43,4.21v1.4h-7.27
		c0.13,0.65,0.42,1.16,0.86,1.53c0.44,0.37,1.01,0.56,1.71,0.56c1.16,0,2.06-0.4,2.72-1.2l1.67,1.94c-0.45,0.62-1.1,1.11-1.94,1.48
		C136.17,145,135.27,145.18,134.31,145.18z M133.9,135.98c-1.07,0-1.71,0.7-1.91,2.09h3.69v-0.28c0.02-0.58-0.13-1.02-0.44-1.34
		C134.92,136.14,134.48,135.98,133.9,135.98z"/>
	<path class="st1" d="M148.95,136.67l-1.2-0.09c-1.15,0-1.89,0.35-2.21,1.07v7.31h-3.66v-11.55h3.43l0.12,1.48
		c0.61-1.13,1.47-1.7,2.57-1.7c0.39,0,0.73,0.04,1.02,0.13L148.95,136.67z"/>
</g>
</svg>
