<svg id="Слой_1" data-name="Слой 1" xmlns="http://www.w3.org/2000/svg" viewBox="0 0 149 149.5">
  <title>footer-logo</title>
  <rect id="Border" x="17.27629" y="1" width="114.44742" height="112.5823" rx="5" style="fill: none;stroke: #3b6eb5;stroke-miterlimit: 10;stroke-width: 2px"/>
  <g id="FM">
    <path d="M60.56629,62.39444H42.50758V82.32173H30.24835V32.29737H65.97714v9.31085H42.50758V53.118H60.56629Z" transform="translate(-0.01239 -0.0184)" style="fill: #fff"/>
    <path d="M79.973,32.29737l11.35114,34.804,11.31621-34.804h16.13608V82.32173H106.48227V70.64022l1.18751-23.91275L95.37562,82.32173h-8.103L74.94287,46.69311l1.1882,23.94711V82.32173H63.87115V32.29737Z" transform="translate(-0.01239 -0.0184)" style="fill: #fff"/>
  </g>
  <g id="fridge_master" data-name="fridge master">
    <path d="M1.71667,144.9694v-9.05529H.01239v-2.49875H1.71667V132.497A3.95718,3.95718,0,0,1,2.8999,129.4315a4.72384,4.72384,0,0,1,3.32173-1.08756,7.38181,7.38181,0,0,1,1.71514.22343l.01085,2.64824a3.39955,3.39955,0,0,0-.901-.09528q-1.66086,0-1.66086,1.40955v.88548H7.67624v2.49875H5.38577v9.05529Z" transform="translate(-0.01239 -0.0184)" style="fill: #fff"/>
    <path d="M17.17881,136.6731l-1.20494-.08543q-1.726,0-2.21448,1.06784v7.31389H10.10115v-11.554h3.43028l.11941,1.48348a2.8371,2.8371,0,0,1,2.57271-1.69705,3.62413,3.62413,0,0,1,1.02039.12815Z" transform="translate(-0.01239 -0.0184)" style="fill: #fff"/>
    <path d="M19.582,130.43691a1.59872,1.59872,0,0,1,.56448-1.2617,2.43817,2.43817,0,0,1,2.93093,0,1.68861,1.68861,0,0,1,0,2.52011,2.42517,2.42517,0,0,1-2.93093,0A1.58977,1.58977,0,0,1,19.582,130.43691Zm3.8862,14.53249H19.79912v-11.554h3.66909Z" transform="translate(-0.01239 -0.0184)" style="fill: #fff"/>
    <path d="M26.37159,139.10777a6.96372,6.96372,0,0,1,1.20578-4.32557,3.98715,3.98715,0,0,1,3.36347-1.58041,3.39193,3.39193,0,0,1,2.6487,1.21734v-5.85176H37.2603v16.402h-3.29l-.18371-1.2387a3.48505,3.48505,0,0,1-2.8658,1.45227,3.98649,3.98649,0,0,1-3.32339-1.58041A7.20119,7.20119,0,0,1,26.37159,139.10777Zm3.65741.22343q0,3.07538,1.82369,3.07538a1.8048,1.8048,0,0,0,1.73685-1.00377v-4.3995a1.75319,1.75319,0,0,0-1.71347-1.02513q-1.69342,0-1.83538,2.691Z" transform="translate(-0.01239 -0.0184)" style="fill: #fff"/>
    <path d="M40.02089,139.10777a7.69651,7.69651,0,0,1,.58452-3.09838,4.65518,4.65518,0,0,1,1.68341-2.07653,4.48883,4.48883,0,0,1,2.55183-.73107,3.5545,3.5545,0,0,1,2.8658,1.21734l.13027-1.00377h3.32005v11.117a4.81383,4.81383,0,0,1-.72146,2.65318,4.61392,4.61392,0,0,1-2.08923,1.7299,7.78875,7.78875,0,0,1-3.16975.60292,6.68531,6.68531,0,0,1-2.50173-.48135,4.51187,4.51187,0,0,1-1.85208-1.24855l1.53143-2.11433a3.37769,3.37769,0,0,0,2.69212,1.18448,2.15916,2.15916,0,0,0,2.43159-2.45439v-.36471a3.4594,3.4594,0,0,1-2.66039,1.14342,4.27085,4.27085,0,0,1-3.4737-1.61819,6.63039,6.63039,0,0,1-1.32268-4.32886Zm3.66743.22343a4.05259,4.05259,0,0,0,.54443,2.24739,1.71759,1.71759,0,0,0,1.51975.828,1.95569,1.95569,0,0,0,1.72516-.7787v-4.8595a1.90513,1.90513,0,0,0-1.70512-.7902,1.72743,1.72743,0,0,0-1.52977.8592A4.6269,4.6269,0,0,0,43.68832,139.3312Z" transform="translate(-0.01239 -0.0184)" style="fill: #fff"/>
    <path d="M60.03141,145.183a6.09565,6.09565,0,0,1-4.37386-1.58534,5.4296,5.4296,0,0,1-1.67339-4.12843v-.299a7.00572,7.00572,0,0,1,.668-3.12795,4.84523,4.84523,0,0,1,1.94895-2.0979,5.96073,5.96073,0,0,1,3.03948-.74256,5.1297,5.1297,0,0,1,3.90792,1.51141,5.877,5.877,0,0,1,1.4329,4.21222v1.398H57.70837a2.43949,2.43949,0,0,0,2.57187,2.08311,3.31416,3.31416,0,0,0,2.7155-1.196l1.67005,1.94347a4.64221,4.64221,0,0,1-1.93726,1.47855A6.64274,6.64274,0,0,1,60.03141,145.183Zm-.41251-9.20479q-1.60575,0-1.91053,2.093h3.6908v-.27764a1.76536,1.76536,0,0,0-.44423-1.34055A1.78948,1.78948,0,0,0,59.6189,135.97818Z" transform="translate(-0.01239 -0.0184)" style="fill: #fff"/>
    <path d="M77.66962,133.41536l.12024,1.35534a4.06668,4.06668,0,0,1,3.35346-1.56891,2.97952,2.97952,0,0,1,3.00775,1.73976,3.93007,3.93007,0,0,1,3.452-1.73976q3.57224,0,3.6691,4.25v7.5176h-3.6691v-7.29417a2.17913,2.17913,0,0,0-.304-1.29127,1.30194,1.30194,0,0,0-1.10724-.40578,1.74007,1.74007,0,0,0-1.61828.9512l.01169.14785v7.89217H80.91619v-7.27118a2.27266,2.27266,0,0,0-.29393-1.31426,1.29644,1.29644,0,0,0-1.11726-.40578,1.75893,1.75893,0,0,0-1.60659.9512v8.04H74.2385v-11.554Z" transform="translate(-0.01239 -0.0184)" style="fill: #fff"/>
    <path d="M101.08869,144.9694a4.03931,4.03931,0,0,1-.34736-1.035A3.42849,3.42849,0,0,1,97.919,145.183a4.20869,4.20869,0,0,1-2.82238-.98735,3.12334,3.12334,0,0,1-1.16236-2.48231,3.21514,3.21514,0,0,1,1.41286-2.8421,7.27891,7.27891,0,0,1,4.10164-.95942h1.12895V137.299q0-1.5993-1.3995-1.59848a1.13573,1.13573,0,0,0-1.30263,1.26662H94.21812a3.21175,3.21175,0,0,1,1.44793-2.72052,6.16841,6.16841,0,0,1,3.69582-1.04485,5.3959,5.3959,0,0,1,3.55052,1.07935,3.72549,3.72549,0,0,1,1.336,2.95709V142.354a5.1746,5.1746,0,0,0,.49767,2.43468v.18071Zm-2.2913-2.34925A2.054,2.054,0,0,0,99.933,142.331a1.804,1.804,0,0,0,.64464-.65056v-1.84654H99.51551q-1.91136,0-1.91053,1.68554a1.02549,1.02549,0,0,0,.33568.79677A1.23017,1.23017,0,0,0,98.79739,142.62015Z" transform="translate(-0.01239 -0.0184)" style="fill: #fff"/>
    <path d="M113.53222,141.72316a.82792.82792,0,0,0-.48765-.736,7.53414,7.53414,0,0,0-1.85709-.57827,8.5634,8.5634,0,0,1-2.25791-.78363,3.75414,3.75414,0,0,1-1.35608-1.1812,2.784,2.784,0,0,1-.46761-1.59026,3.17668,3.17668,0,0,1,1.336-2.622,5.56616,5.56616,0,0,1,3.49541-1.03006,6.15977,6.15977,0,0,1,3.73423,1.03663,3.22137,3.22137,0,0,1,1.41119,2.72217h-3.6691q0-1.38736-1.488-1.38819a1.48859,1.48859,0,0,0-.96529.31542.97011.97011,0,0,0-.39079.78528.892.892,0,0,0,.47763.7787,4.58059,4.58059,0,0,0,1.52476.49121,13.4404,13.4404,0,0,1,1.84039.45835q2.64786.897,2.64869,3.215a3.01756,3.01756,0,0,1-1.42789,2.57432,6.34688,6.34688,0,0,1-3.69581.99227,6.47048,6.47048,0,0,1-2.69212-.53392,4.48876,4.48876,0,0,1-1.8454-1.45227,3.25833,3.25833,0,0,1-.66134-1.93361h3.41859a1.38114,1.38114,0,0,0,.54276,1.1697,2.25294,2.25294,0,0,0,1.336.368,1.76831,1.76831,0,0,0,1.12227-.299A.94563.94563,0,0,0,113.53222,141.72316Z" transform="translate(-0.01239 -0.0184)" style="fill: #fff"/>
    <path d="M124.14371,130.54205v2.87331h1.93057v2.49875h-1.93057v5.28663a1.33583,1.33583,0,0,0,.23714.90684,1.29883,1.29883,0,0,0,.94525.25629,5.445,5.445,0,0,0,.91185-.06407v2.57431a6.88567,6.88567,0,0,1-2.06252.30886,3.87847,3.87847,0,0,1-2.79064-.87563,3.55788,3.55788,0,0,1-.90016-2.65975v-5.73348h-1.498v-2.49875h1.498v-2.87331Z" transform="translate(-0.01239 -0.0184)" style="fill: #fff"/>
    <path d="M134.30929,145.183a6.09568,6.09568,0,0,1-4.37386-1.58534,5.4296,5.4296,0,0,1-1.67338-4.12843v-.299a7.00572,7.00572,0,0,1,.668-3.12795,4.84535,4.84535,0,0,1,1.94895-2.0979,5.96076,5.96076,0,0,1,3.03949-.74256,5.12968,5.12968,0,0,1,3.90791,1.51141,5.877,5.877,0,0,1,1.4329,4.21222v1.398h-7.27306a2.4395,2.4395,0,0,0,2.57188,2.08311,3.31414,3.31414,0,0,0,2.71549-1.196l1.67005,1.94347a4.64224,4.64224,0,0,1-1.93725,1.47855A6.64279,6.64279,0,0,1,134.30929,145.183Zm-.4125-9.20479q-1.60575,0-1.91054,2.093h3.69081v-.27764a1.76544,1.76544,0,0,0-.44423-1.34055A1.7895,1.7895,0,0,0,133.89679,135.97818Z" transform="translate(-0.01239 -0.0184)" style="fill: #fff"/>
    <path d="M148.94559,136.6731l-1.20411-.08543q-1.726,0-2.21448,1.06784v7.31389h-3.65907v-11.554h3.43027l.12025,1.48348a2.836,2.836,0,0,1,2.57187-1.69705,3.6407,3.6407,0,0,1,1.02207.12815Z" transform="translate(-0.01239 -0.0184)" style="fill: #fff"/>
  </g>
</svg>
