<svg xmlns="http://www.w3.org/2000/svg" viewBox="0 0 200 120">
  <title>FM-logo-3</title>
  <g id="Bg">
    <rect width="200" height="120" rx="18.08511"/>
  </g>
  <g id="Logo">
    <rect id="Border" x="66.53837" y="16.53837" width="66.92326" height="66.92327" rx="5" style="fill: none;stroke: #3b6eb5;stroke-miterlimit: 10;stroke-width: 2px"/>
    <g id="text">
      <g id="FM">
        <path d="M91.845,53.02266H81.28515V64.86821h-7.1686V35.13179H95.009v5.53473H81.28515v6.84183H91.845Z" style="fill: #fff"/>
        <path d="M103.1931,35.13179l6.63759,20.68887,6.61717-20.68887h9.43559V64.86821h-7.189v-6.944l.69439-14.21465-7.189,21.1586h-4.73822l-7.20986-21.179.69481,14.23508v6.944h-7.169V35.13179Z" style="fill: #fff"/>
      </g>
      <g id="fridge_master" data-name="fridge master">
        <path d="M57.07959,102.1084V96.72559H56.083V95.24023h.99658v-.54589a2.373,2.373,0,0,1,.69189-1.82227,2.73381,2.73381,0,0,1,1.94239-.64648,4.25,4.25,0,0,1,1.00293.13281l.00634,1.57422a1.95675,1.95675,0,0,0-.52685-.05664q-.97119,0-.97119.83789v.52636h1.33935v1.48536H59.2251v5.38281Z" style="fill: #fff"/>
        <path d="M66.12109,97.17676,65.4165,97.126a1.26456,1.26456,0,0,0-1.29492.63476v4.34766H61.98242V95.24023h2.00586l.06983.88184a1.65788,1.65788,0,0,1,1.50439-1.00879,2.08685,2.08685,0,0,1,.59668.07617Z" style="fill: #fff"/>
        <path d="M67.52637,93.46973a.95719.95719,0,0,1,.33008-.75,1.40716,1.40716,0,0,1,1.71386,0,1.01488,1.01488,0,0,1,0,1.498,1.39973,1.39973,0,0,1-1.71386,0A.95178.95178,0,0,1,67.52637,93.46973Zm2.27246,8.63867H67.65332V95.24023h2.14551Z" style="fill: #fff"/>
        <path d="M71.49658,98.624a4.18935,4.18935,0,0,1,.70508-2.57129,2.31745,2.31745,0,0,1,1.9668-.93945,1.97016,1.97016,0,0,1,1.54883.72363V92.3584h2.14648v9.75H75.93994l-.10742-.73633a2.02722,2.02722,0,0,1-1.67578.86328,2.31722,2.31722,0,0,1-1.94336-.93945A4.33259,4.33259,0,0,1,71.49658,98.624Zm2.13867.13282q0,1.82813,1.06641,1.82812a1.05283,1.05283,0,0,0,1.01563-.59668V97.37305a1.02338,1.02338,0,0,0-1.002-.60938q-.99023,0-1.07324,1.59961Z" style="fill: #fff"/>
        <path d="M79.478,98.624a4.64145,4.64145,0,0,1,.34179-1.84179,2.75834,2.75834,0,0,1,.98438-1.23438,2.59372,2.59372,0,0,1,1.49219-.43457,2.06311,2.06311,0,0,1,1.67578.72363l.07617-.59668h1.94141v6.6084a2.89726,2.89726,0,0,1-.42188,1.57715,2.70907,2.70907,0,0,1-1.22168,1.02832,4.48978,4.48978,0,0,1-1.85351.3584,3.85351,3.85351,0,0,1-1.46289-.28613,2.6373,2.6373,0,0,1-1.083-.74219l.89551-1.25684a1.96107,1.96107,0,0,0,1.57421.70411,1.2733,1.2733,0,0,0,1.42188-1.459v-.2168a2.00766,2.00766,0,0,1-1.55567.67969,2.48156,2.48156,0,0,1-2.03125-.96191A3.986,3.986,0,0,1,79.478,98.7002Zm2.14453.13282a2.4403,2.4403,0,0,0,.31836,1.33593,1.00051,1.00051,0,0,0,.88867.49219,1.13647,1.13647,0,0,0,1.00879-.46289V97.2334a1.10751,1.10751,0,0,0-.99707-.46973,1.0067,1.0067,0,0,0-.89453.51074A2.78737,2.78737,0,0,0,81.62256,98.75684Z" style="fill: #fff"/>
        <path d="M91.1792,102.23535a3.53078,3.53078,0,0,1-2.55762-.94238,3.25485,3.25485,0,0,1-.97851-2.4541v-.17774a4.22261,4.22261,0,0,1,.39062-1.85937,2.8621,2.8621,0,0,1,1.13965-1.24707,3.44046,3.44046,0,0,1,1.77734-.44141,2.97377,2.97377,0,0,1,2.28516.89844,3.52918,3.52918,0,0,1,.83789,2.50391v.83105H89.8208a1.53729,1.53729,0,0,0,.50195.9082,1.49113,1.49113,0,0,0,1.002.33008A1.9245,1.9245,0,0,0,92.9126,99.874l.97656,1.15528a2.72059,2.72059,0,0,1-1.13281.8789A3.83,3.83,0,0,1,91.1792,102.23535ZM90.938,96.76367q-.939,0-1.11719,1.24414H91.979v-.165a1.06023,1.06023,0,0,0-.25976-.79687A1.03653,1.03653,0,0,0,90.938,96.76367Z" style="fill: #fff"/>
        <path d="M101.49316,95.24023l.07032.80567a2.36318,2.36318,0,0,1,1.96093-.93262,1.73874,1.73874,0,0,1,1.75879,1.03418,2.28681,2.28681,0,0,1,2.01856-1.03418q2.08887,0,2.14551,2.52637v4.46875h-2.14551V97.77246a1.31213,1.31213,0,0,0-.17774-.76758.75486.75486,0,0,0-.64746-.24121,1.01509,1.01509,0,0,0-.94629.56543l.00684.08789v4.69141H103.3916V97.78613a1.3689,1.3689,0,0,0-.17187-.78125.75168.75168,0,0,0-.65332-.24121,1.02609,1.02609,0,0,0-.93946.56543v4.7793H99.48682V95.24023Z" style="fill: #fff"/>
        <path d="M115.1875,102.1084a2.42825,2.42825,0,0,1-.20312-.61524,1.99108,1.99108,0,0,1-1.6504.74219,2.43646,2.43646,0,0,1-1.65039-.58691,1.869,1.869,0,0,1-.67968-1.47559,1.92139,1.92139,0,0,1,.82617-1.68945,4.20164,4.20164,0,0,1,2.39844-.57031h.66015v-.36426q0-.95068-.81836-.9502a.66942.66942,0,0,0-.76172.75293h-2.13867a1.91812,1.91812,0,0,1,.84668-1.61718,3.56439,3.56439,0,0,1,2.16113-.6211,3.12042,3.12042,0,0,1,2.07618.6416,2.23006,2.23006,0,0,1,.78125,1.75782v3.041a3.119,3.119,0,0,0,.291,1.44727v.10742Zm-1.33984-1.39649a1.186,1.186,0,0,0,.66406-.17187,1.0642,1.0642,0,0,0,.377-.38672V99.05566h-.62109q-1.11768,0-1.11719,1.002a.61445.61445,0,0,0,.19629.47363A.71234.71234,0,0,0,113.84766,100.71191Z" style="fill: #fff"/>
        <path d="M122.46387,100.17871a.49264.49264,0,0,0-.28516-.4375,4.35471,4.35471,0,0,0-1.08594-.34375,4.95331,4.95331,0,0,1-1.32031-.46582,2.20684,2.20684,0,0,1-.793-.70215,1.67471,1.67471,0,0,1-.27344-.94531,1.89857,1.89857,0,0,1,.78125-1.55859,3.21766,3.21766,0,0,1,2.04395-.61231,3.55921,3.55921,0,0,1,2.18359.61621,1.92457,1.92457,0,0,1,.8252,1.61817h-2.14551q0-.82472-.87012-.8252a.86118.86118,0,0,0-.56445.1875.58.58,0,0,0-.22851.4668.53155.53155,0,0,0,.27929.46289,2.64862,2.64862,0,0,0,.8916.292,7.75441,7.75441,0,0,1,1.07618.27246,1.95579,1.95579,0,0,1,1.54882,1.91113,1.801,1.801,0,0,1-.835,1.53028,3.66622,3.66622,0,0,1-2.16113.58984,3.73056,3.73056,0,0,1-1.57422-.31738,2.63238,2.63238,0,0,1-1.0791-.86328,1.9579,1.9579,0,0,1-.38672-1.14942h1.999a.82611.82611,0,0,0,.31739.69532,1.30163,1.30163,0,0,0,.78125.21875,1.02175,1.02175,0,0,0,.65625-.17774A.56561.56561,0,0,0,122.46387,100.17871Z" style="fill: #fff"/>
        <path d="M128.669,93.53223v1.708h1.1289v1.48536H128.669v3.14257a.8036.8036,0,0,0,.13867.53907.75093.75093,0,0,0,.55273.15234,3.13167,3.13167,0,0,0,.5332-.03809v1.53028a3.96592,3.96592,0,0,1-1.20605.18359,2.24416,2.24416,0,0,1-1.63184-.52051,2.13623,2.13623,0,0,1-.52636-1.581v-3.4082h-.876V95.24023h.876v-1.708Z" style="fill: #fff"/>
        <path d="M134.61328,102.23535a3.53078,3.53078,0,0,1-2.55762-.94238,3.25485,3.25485,0,0,1-.97851-2.4541v-.17774a4.22261,4.22261,0,0,1,.39062-1.85937,2.86216,2.86216,0,0,1,1.13965-1.24707,3.4405,3.4405,0,0,1,1.77735-.44141,2.97376,2.97376,0,0,1,2.28515.89844,3.52914,3.52914,0,0,1,.83789,2.50391v.83105h-4.25293a1.53731,1.53731,0,0,0,.502.9082,1.49108,1.49108,0,0,0,1.00195.33008,1.9245,1.9245,0,0,0,1.58789-.71094l.97656,1.15528a2.72059,2.72059,0,0,1-1.13281.8789A3.83,3.83,0,0,1,134.61328,102.23535Zm-.24121-5.47168q-.939,0-1.11719,1.24414h2.15821v-.165a1.06023,1.06023,0,0,0-.25977-.79687A1.03653,1.03653,0,0,0,134.37207,96.76367Z" style="fill: #fff"/>
        <path d="M143.17188,97.17676l-.70411-.05078a1.26456,1.26456,0,0,0-1.29492.63476v4.34766H139.0332V95.24023h2.00586l.07032.88184a1.65723,1.65723,0,0,1,1.5039-1.00879,2.09636,2.09636,0,0,1,.59766.07617Z" style="fill: #fff"/>
      </g>
    </g>
  </g>
</svg>
