<?xml version="1.0" encoding="utf-8"?>
<!-- Generator: Adobe Illustrator 24.0.2, SVG Export Plug-In . SVG Version: 6.00 Build 0)  -->
<svg version="1.1" xmlns="http://www.w3.org/2000/svg" xmlns:xlink="http://www.w3.org/1999/xlink" x="0px" y="0px"
	 viewBox="0 0 200 120" style="enable-background:new 0 0 200 120;" xml:space="preserve">
<style type="text/css">
	.st0{fill:#010202;}
	.st1{fill:none;stroke:#3B6EB5;stroke-width:2;stroke-miterlimit:10;}
	.st2{fill:#FFFFFF;}
</style>
<g id="Bg">
	<path class="st0" d="M181.91,120H18.09C8.1,120,0,111.9,0,101.91V18.09C0,8.1,8.1,0,18.09,0h163.83C191.9,0,200,8.1,200,18.09
		v83.83C200,111.9,191.9,120,181.91,120z"/>
</g>
<g id="Logo">
	<path id="Border_2_" class="st1" d="M128.46,83.46H71.54c-2.76,0-5-2.24-5-5V21.54c0-2.76,2.24-5,5-5h56.92c2.76,0,5,2.24,5,5
		l0,56.92C133.46,81.22,131.22,83.46,128.46,83.46z"/>
	<g id="text">
		<polygon class="st2" points="116.45,35.13 109.83,55.82 103.19,35.13 95.01,35.13 93.78,35.13 74.12,35.13 74.12,64.87 
			81.29,64.87 81.29,53.02 91.84,53.02 91.84,47.51 81.29,47.51 81.29,40.67 93.78,40.67 93.78,64.87 100.95,64.87 100.95,57.92 
			100.25,43.69 107.46,64.87 112.2,64.87 119.39,43.71 118.69,57.92 118.69,64.87 125.88,64.87 125.88,35.13 		"/>
		<g id="fridge_master_1_">
			<path class="st2" d="M57.08,102.11v-5.38h-1v-1.49h1v-0.55c0-0.78,0.23-1.39,0.69-1.82s1.11-0.65,1.94-0.65
				c0.3,0,0.64,0.04,1,0.13l0.01,1.57c-0.13-0.04-0.31-0.06-0.53-0.06c-0.65,0-0.97,0.28-0.97,0.84v0.53h1.34v1.49h-1.34v5.38H57.08
				z"/>
			<path class="st2" d="M66.12,97.18l-0.7-0.05c-0.67,0-1.1,0.21-1.29,0.63v4.35h-2.14v-6.87h2.01l0.07,0.88
				c0.36-0.67,0.86-1.01,1.5-1.01c0.23,0,0.43,0.03,0.6,0.08L66.12,97.18z"/>
			<path class="st2" d="M67.53,93.47c0-0.3,0.11-0.55,0.33-0.75c0.22-0.19,0.51-0.29,0.86-0.29s0.64,0.1,0.86,0.29
				c0.22,0.2,0.33,0.45,0.33,0.75s-0.11,0.55-0.33,0.75c-0.22,0.2-0.51,0.29-0.86,0.29s-0.64-0.1-0.86-0.29
				C67.64,94.02,67.53,93.77,67.53,93.47z M69.8,102.11h-2.15v-6.87h2.15V102.11z"/>
			<path class="st2" d="M71.5,98.62c0-1.09,0.23-1.95,0.71-2.57c0.47-0.63,1.13-0.94,1.97-0.94c0.61,0,1.13,0.24,1.55,0.72v-3.48
				h2.15v9.75h-1.92l-0.11-0.74c-0.44,0.58-1,0.86-1.68,0.86c-0.82,0-1.46-0.31-1.94-0.94C71.74,100.67,71.5,99.78,71.5,98.62z
				 M73.64,98.76c0,1.22,0.36,1.83,1.07,1.83c0.47,0,0.81-0.2,1.02-0.6v-2.62c-0.19-0.41-0.53-0.61-1-0.61
				c-0.66,0-1.02,0.53-1.07,1.6L73.64,98.76z"/>
			<path class="st2" d="M79.48,98.62c0-0.69,0.11-1.31,0.34-1.84s0.56-0.94,0.98-1.23s0.92-0.43,1.49-0.43
				c0.71,0,1.27,0.24,1.68,0.72l0.08-0.6h1.94v6.61c0,0.6-0.14,1.13-0.42,1.58s-0.69,0.79-1.22,1.03s-1.15,0.36-1.85,0.36
				c-0.5,0-0.99-0.09-1.46-0.29c-0.47-0.19-0.83-0.44-1.08-0.74l0.9-1.26c0.4,0.47,0.92,0.7,1.57,0.7c0.95,0,1.42-0.49,1.42-1.46
				v-0.22c-0.41,0.45-0.93,0.68-1.56,0.68c-0.84,0-1.51-0.32-2.03-0.96c-0.52-0.64-0.77-1.5-0.77-2.57V98.62z M81.62,98.76
				c0,0.56,0.11,1.01,0.32,1.34c0.21,0.33,0.51,0.49,0.89,0.49c0.46,0,0.8-0.15,1.01-0.46v-2.89c-0.21-0.31-0.54-0.47-1-0.47
				c-0.38,0-0.68,0.17-0.89,0.51S81.62,98.11,81.62,98.76z"/>
			<path class="st2" d="M91.18,102.24c-1.05,0-1.91-0.31-2.56-0.94c-0.65-0.63-0.98-1.45-0.98-2.45v-0.18c0-0.7,0.13-1.32,0.39-1.86
				c0.26-0.54,0.64-0.95,1.14-1.25s1.09-0.44,1.78-0.44c0.96,0,1.73,0.3,2.29,0.9s0.84,1.43,0.84,2.5v0.83h-4.25
				c0.08,0.39,0.24,0.69,0.5,0.91c0.26,0.22,0.59,0.33,1,0.33c0.68,0,1.21-0.24,1.59-0.71l0.98,1.16c-0.27,0.37-0.64,0.66-1.13,0.88
				C92.27,102.13,91.74,102.24,91.18,102.24z M90.94,96.76c-0.63,0-1,0.42-1.12,1.24h2.16v-0.17c0.01-0.34-0.08-0.61-0.26-0.8
				C91.54,96.86,91.28,96.76,90.94,96.76z"/>
			<path class="st2" d="M101.49,95.24l0.07,0.81c0.49-0.62,1.14-0.93,1.96-0.93c0.87,0,1.45,0.34,1.76,1.03
				c0.47-0.69,1.14-1.03,2.02-1.03c1.39,0,2.11,0.84,2.15,2.53v4.47h-2.15v-4.34c0-0.35-0.06-0.61-0.18-0.77s-0.33-0.24-0.65-0.24
				c-0.42,0-0.74,0.19-0.95,0.57l0.01,0.09v4.69h-2.15v-4.32c0-0.36-0.06-0.62-0.17-0.78c-0.11-0.16-0.33-0.24-0.65-0.24
				c-0.41,0-0.72,0.19-0.94,0.57v4.78h-2.14v-6.87H101.49z"/>
			<path class="st2" d="M115.19,102.11c-0.08-0.14-0.14-0.34-0.2-0.62c-0.39,0.49-0.94,0.74-1.65,0.74c-0.65,0-1.2-0.2-1.65-0.59
				s-0.68-0.88-0.68-1.48c0-0.75,0.28-1.31,0.83-1.69c0.55-0.38,1.35-0.57,2.4-0.57h0.66v-0.36c0-0.63-0.27-0.95-0.82-0.95
				c-0.51,0-0.76,0.25-0.76,0.75h-2.14c0-0.66,0.28-1.2,0.85-1.62c0.57-0.41,1.29-0.62,2.16-0.62c0.88,0,1.57,0.21,2.08,0.64
				c0.51,0.43,0.77,1.01,0.78,1.76v3.04c0.01,0.63,0.11,1.11,0.29,1.45v0.11H115.19z M113.85,100.71c0.27,0,0.49-0.06,0.66-0.17
				c0.18-0.11,0.3-0.24,0.38-0.39v-1.1h-0.62c-0.75,0-1.12,0.33-1.12,1c0,0.2,0.07,0.35,0.2,0.47
				C113.48,100.65,113.64,100.71,113.85,100.71z"/>
			<path class="st2" d="M122.46,100.18c0-0.18-0.09-0.33-0.29-0.44c-0.19-0.11-0.55-0.22-1.09-0.34c-0.53-0.12-0.97-0.27-1.32-0.47
				c-0.35-0.19-0.61-0.43-0.79-0.7c-0.18-0.27-0.27-0.59-0.27-0.95c0-0.63,0.26-1.15,0.78-1.56s1.2-0.61,2.04-0.61
				c0.91,0,1.63,0.21,2.18,0.62c0.55,0.41,0.83,0.95,0.83,1.62h-2.15c0-0.55-0.29-0.83-0.87-0.83c-0.22,0-0.41,0.06-0.56,0.19
				s-0.23,0.28-0.23,0.47c0,0.19,0.09,0.34,0.28,0.46s0.48,0.22,0.89,0.29s0.77,0.17,1.08,0.27c1.03,0.36,1.55,0.99,1.55,1.91
				c0,0.63-0.28,1.14-0.83,1.53c-0.56,0.39-1.28,0.59-2.16,0.59c-0.59,0-1.11-0.11-1.57-0.32s-0.82-0.5-1.08-0.86
				s-0.39-0.75-0.39-1.15h2c0.01,0.32,0.11,0.55,0.32,0.7c0.2,0.15,0.46,0.22,0.78,0.22c0.29,0,0.51-0.06,0.66-0.18
				C122.39,100.52,122.46,100.37,122.46,100.18z"/>
			<path class="st2" d="M128.67,93.53v1.71h1.13v1.49h-1.13v3.14c0,0.26,0.05,0.44,0.14,0.54c0.09,0.1,0.28,0.15,0.55,0.15
				c0.21,0,0.39-0.01,0.53-0.04v1.53c-0.38,0.12-0.79,0.18-1.21,0.18c-0.74,0-1.28-0.17-1.63-0.52c-0.35-0.35-0.53-0.87-0.53-1.58
				v-3.41h-0.88v-1.49h0.88v-1.71H128.67z"/>
			<path class="st2" d="M134.61,102.24c-1.05,0-1.91-0.31-2.56-0.94c-0.65-0.63-0.98-1.45-0.98-2.45v-0.18
				c0-0.7,0.13-1.32,0.39-1.86c0.26-0.54,0.64-0.95,1.14-1.25s1.09-0.44,1.78-0.44c0.96,0,1.73,0.3,2.29,0.9s0.84,1.43,0.84,2.5
				v0.83h-4.25c0.08,0.39,0.24,0.69,0.5,0.91c0.26,0.22,0.59,0.33,1,0.33c0.68,0,1.21-0.24,1.59-0.71l0.98,1.16
				c-0.27,0.37-0.64,0.66-1.13,0.88C135.7,102.13,135.18,102.24,134.61,102.24z M134.37,96.76c-0.63,0-1,0.42-1.12,1.24h2.16v-0.17
				c0.01-0.34-0.08-0.61-0.26-0.8C134.97,96.86,134.71,96.76,134.37,96.76z"/>
			<path class="st2" d="M143.17,97.18l-0.7-0.05c-0.67,0-1.1,0.21-1.29,0.63v4.35h-2.14v-6.87h2.01l0.07,0.88
				c0.36-0.67,0.86-1.01,1.5-1.01c0.23,0,0.43,0.03,0.6,0.08L143.17,97.18z"/>
		</g>
	</g>
</g>
</svg>
