<?xml version="1.0" standalone="no"?>
<!DOCTYPE svg PUBLIC "-//W3C//DTD SVG 20010904//EN"
 "http://www.w3.org/TR/2001/REC-SVG-20010904/DTD/svg10.dtd">
<svg version="1.0" xmlns="http://www.w3.org/2000/svg"
height="auto" viewBox="0 0 512.000000 512.000000"
 preserveAspectRatio="xMidYMid meet">

<g transform="translate(0.000000,512.000000) scale(0.100000,-0.100000)"
fill="#000000" stroke="none">
<path d="M3557 4425 l-437 -585 240 0 240 0 0 -301 c0 -283 -1 -301 -17 -294
-64 25 -181 35 -395 35 l-231 0 6 -107 c10 -198 73 -339 212 -478 92 -92 176
-144 290 -182 72 -23 100 -26 268 -31 l187 -4 0 -159 0 -159 -376 0 c-267 0
-389 -4 -418 -12 -55 -16 -138 -99 -154 -154 -15 -52 -16 -260 0 -305 6 -19
20 -46 30 -62 19 -27 19 -27 0 -55 -33 -47 -42 -92 -42 -212 0 -120 9 -165 42
-212 19 -28 19 -28 0 -55 -33 -48 -42 -93 -42 -213 0 -120 9 -165 42 -212 19
-28 19 -28 0 -55 -10 -16 -24 -43 -30 -62 -16 -45 -15 -253 0 -305 16 -55 99
-138 154 -154 59 -17 1689 -17 1748 0 55 16 138 99 154 154 7 23 12 95 12 161
0 112 -2 124 -28 177 l-29 56 29 56 c26 54 28 64 28 184 0 120 -2 130 -28 184
l-29 56 29 56 c26 54 28 64 28 184 0 120 -2 130 -28 184 l-29 56 29 56 c26 53
28 65 28 177 0 145 -11 185 -67 247 -71 79 -77 80 -515 80 l-378 0 0 159 0
159 188 4 c167 5 195 8 267 31 114 38 198 90 290 182 139 139 202 280 212 478
l6 107 -231 0 c-214 0 -331 -10 -394 -35 -17 -7 -18 11 -18 294 l0 301 240 0
240 0 -437 585 c-241 321 -440 584 -443 584 -3 0 -202 -263 -443 -584z m728
-57 l275 -368 -160 0 -160 0 0 -425 c0 -271 -4 -425 -10 -425 -19 0 -149 -132
-187 -190 -21 -33 -40 -60 -43 -60 -3 0 -18 21 -35 47 -36 58 -138 168 -176
190 l-29 17 0 423 0 423 -160 0 -160 0 277 370 c153 204 281 369 285 368 4 -2
131 -168 283 -370z m-744 -1280 c95 -35 152 -71 215 -135 64 -65 98 -120 131
-210 39 -108 46 -103 -120 -103 -230 0 -360 44 -478 163 -68 67 -103 122 -136
214 -41 112 -50 106 150 101 152 -4 180 -8 238 -30z m1329 12 c0 -28 -42 -140
-73 -192 -34 -59 -125 -150 -183 -184 -109 -64 -165 -77 -351 -82 -200 -5
-191 -11 -150 101 60 165 171 278 330 339 80 30 120 36 280 37 140 1 147 0
147 -19z m-1590 -1180 l0 -80 80 0 80 0 0 80 0 80 80 0 80 0 0 -80 0 -80 80 0
80 0 0 80 0 80 80 0 80 0 0 -80 0 -80 80 0 80 0 0 80 0 80 80 0 80 0 0 -80 0
-80 80 0 80 0 0 80 0 80 80 0 80 0 0 -80 0 -80 80 0 80 0 0 80 0 80 55 0 c46
0 60 -4 80 -25 24 -23 25 -31 25 -135 0 -104 -1 -112 -25 -135 l-24 -25 -831
0 -831 0 -24 25 c-24 23 -25 31 -25 135 0 104 1 112 25 135 20 21 34 25 80 25
l55 0 0 -80z m0 -480 l0 -80 80 0 80 0 0 80 0 80 80 0 80 0 0 -80 0 -80 80 0
80 0 0 80 0 80 80 0 80 0 0 -80 0 -80 80 0 80 0 0 80 0 80 80 0 80 0 0 -80 0
-80 80 0 80 0 0 80 0 80 80 0 80 0 0 -80 0 -80 80 0 80 0 0 80 0 80 55 0 c46
0 60 -4 80 -25 24 -23 25 -31 25 -135 0 -104 -1 -112 -25 -135 l-24 -25 -831
0 -831 0 -24 25 c-24 23 -25 31 -25 135 0 104 1 112 25 135 20 21 34 25 80 25
l55 0 0 -80z m0 -480 l0 -80 80 0 80 0 0 80 0 80 80 0 80 0 0 -80 0 -80 80 0
80 0 0 80 0 80 80 0 80 0 0 -80 0 -80 80 0 80 0 0 80 0 80 80 0 80 0 0 -80 0
-80 80 0 80 0 0 80 0 80 80 0 80 0 0 -80 0 -80 80 0 80 0 0 80 0 80 55 0 c46
0 60 -4 80 -25 24 -23 25 -31 25 -135 0 -104 -1 -112 -25 -135 l-24 -25 -831
0 -831 0 -24 25 c-24 23 -25 31 -25 135 0 104 1 112 25 135 20 21 34 25 80 25
l55 0 0 -80z m0 -480 l0 -80 80 0 80 0 0 80 0 80 80 0 80 0 0 -80 0 -80 80 0
80 0 0 80 0 80 80 0 80 0 0 -80 0 -80 80 0 80 0 0 80 0 80 80 0 80 0 0 -80 0
-80 80 0 80 0 0 80 0 80 80 0 80 0 0 -80 0 -80 80 0 80 0 0 80 0 80 55 0 c46
0 60 -4 80 -25 24 -23 25 -31 25 -135 0 -104 -1 -112 -25 -135 l-24 -25 -831
0 -831 0 -24 25 c-24 23 -25 31 -25 135 0 104 1 112 25 135 20 21 34 25 80 25
l55 0 0 -80z"/>
<path d="M1320 3915 c-8 -2 -49 -9 -90 -15 -232 -38 -459 -157 -636 -334 -170
-170 -279 -371 -330 -606 -26 -117 -25 -361 0 -480 65 -305 251 -581 503 -750
l75 -50 -118 0 c-149 0 -186 -11 -250 -75 -67 -67 -77 -105 -73 -274 l4 -131
-59 0 c-89 0 -134 -18 -191 -75 -64 -63 -75 -100 -75 -245 0 -145 11 -182 75
-245 57 -57 102 -75 191 -75 l59 0 -4 -131 c-4 -169 6 -207 73 -274 32 -32 66
-55 92 -63 59 -17 1689 -17 1748 0 55 16 138 99 154 154 16 53 16 255 0 308
-16 55 -99 138 -154 154 -23 7 -68 12 -100 12 l-59 0 0 160 0 160 59 0 c89 0
134 18 191 75 64 63 75 100 75 245 0 138 -11 178 -67 240 -59 66 -104 80 -256
80 l-119 0 75 50 c236 158 414 412 489 695 29 111 31 132 31 290 1 181 -9 244
-58 391 -97 288 -321 545 -595 684 -167 84 -307 119 -505 125 -77 2 -147 2
-155 0z m266 -166 c153 -21 331 -92 459 -184 68 -48 205 -187 251 -255 149
-217 211 -496 169 -755 -37 -227 -139 -419 -312 -586 -90 -87 -138 -121 -243
-174 -353 -178 -768 -145 -1081 86 -74 55 -199 181 -246 250 -177 257 -229
598 -136 894 54 173 141 312 274 440 98 94 146 129 255 183 190 96 400 130
610 101z m-866 -2309 l0 -80 80 0 80 0 0 80 0 80 80 0 80 0 0 -80 0 -80 80 0
80 0 0 80 0 80 80 0 80 0 0 -80 0 -80 80 0 80 0 0 80 0 80 80 0 80 0 0 -80 0
-80 80 0 80 0 0 80 0 80 80 0 80 0 0 -80 0 -80 80 0 80 0 0 80 0 80 55 0 c46
0 60 -4 80 -25 24 -23 25 -31 25 -135 0 -104 -1 -112 -25 -135 l-24 -25 -831
0 -831 0 -24 25 c-24 23 -25 31 -25 135 0 104 1 112 25 135 20 21 34 25 80 25
l55 0 0 -80z m-320 -480 l0 -80 80 0 80 0 0 80 0 80 80 0 80 0 0 -80 0 -80 80
0 80 0 0 80 0 80 80 0 80 0 0 -80 0 -80 80 0 80 0 0 80 0 80 80 0 80 0 0 -80
0 -80 80 0 80 0 0 80 0 80 80 0 80 0 0 -80 0 -80 80 0 80 0 0 80 0 80 55 0
c46 0 60 -4 80 -25 24 -23 25 -31 25 -135 0 -104 -1 -112 -25 -135 l-24 -25
-831 0 -831 0 -24 25 c-24 23 -25 31 -25 135 0 104 1 112 25 135 20 21 34 25
80 25 l55 0 0 -80z m320 -480 l0 -80 80 0 80 0 0 80 0 80 80 0 80 0 0 -80 0
-80 80 0 80 0 0 80 0 80 80 0 80 0 0 -80 0 -80 80 0 80 0 0 80 0 80 80 0 80 0
0 -80 0 -80 80 0 80 0 0 80 0 80 80 0 80 0 0 -80 0 -80 80 0 80 0 0 80 0 80
55 0 c46 0 60 -4 80 -25 24 -23 25 -31 25 -135 0 -104 -1 -112 -25 -135 l-24
-25 -831 0 -831 0 -24 25 c-24 23 -25 31 -25 135 0 104 1 112 25 135 20 21 34
25 80 25 l55 0 0 -80z"/>
<path d="M1325 3593 c-60 -8 -181 -42 -239 -68 -70 -31 -196 -111 -196 -124 0
-12 89 -121 99 -121 4 0 16 9 26 19 25 28 169 97 245 118 47 13 99 18 190 17
107 -1 137 -5 205 -27 115 -38 198 -90 290 -182 131 -131 199 -277 212 -454
10 -141 -33 -322 -100 -421 -13 -19 -31 -47 -41 -62 l-17 -26 56 -46 c31 -25
61 -46 66 -46 5 0 29 31 54 68 228 353 181 807 -115 1102 -192 193 -470 288
-735 253z"/>
<path d="M1360 3200 l0 -80 -120 0 -120 0 0 -136 c0 -170 9 -204 75 -269 63
-64 100 -75 244 -75 105 0 113 -1 136 -25 21 -20 25 -34 25 -80 l0 -55 -135 0
c-131 0 -137 1 -160 25 -14 13 -25 31 -25 40 0 12 -15 15 -80 15 -67 0 -80 -3
-80 -16 0 -100 124 -224 224 -224 13 0 16 -13 16 -80 l0 -80 80 0 80 0 0 80 0
80 120 0 120 0 0 136 c0 170 -9 204 -75 269 -63 64 -100 75 -244 75 -105 0
-113 1 -136 25 -21 20 -25 34 -25 80 l0 55 135 0 c131 0 137 -1 160 -25 14
-13 25 -31 25 -40 0 -12 15 -15 80 -15 67 0 80 3 80 16 0 76 -80 182 -157 208
-26 9 -55 16 -65 16 -16 0 -18 9 -18 80 l0 80 -80 0 -80 0 0 -80z"/>
<path d="M705 3202 c-228 -353 -181 -807 115 -1102 283 -284 725 -341 1063
-138 109 65 114 71 95 100 -9 13 -31 40 -49 61 l-34 38 -60 -41 c-219 -147
-525 -157 -755 -23 -84 49 -215 180 -263 263 -134 231 -124 534 23 755 l40 60
-53 47 c-28 26 -58 48 -65 48 -7 0 -32 -31 -57 -68z"/>
</g>
</svg>
