<?xml version="1.0" standalone="no"?>
<!DOCTYPE svg PUBLIC "-//W3C//DTD SVG 20010904//EN"
 "http://www.w3.org/TR/2001/REC-SVG-20010904/DTD/svg10.dtd">
<svg version="1.0" xmlns="http://www.w3.org/2000/svg"
  viewBox="0 0 512.000000 512.000000"
 preserveAspectRatio="xMidYMid meet">

<g transform="translate(0.000000,512.000000) scale(0.100000,-0.100000)"
fill="#000000" stroke="none">
<path d="M672 5009 c-67 -34 -94 -83 -100 -179 l-4 -78 -117 -4 c-105 -4 -123
-7 -184 -36 -127 -58 -227 -185 -256 -320 -8 -38 -11 -477 -11 -1508 l0 -1455
25 -24 c31 -32 69 -32 100 0 l25 24 0 1106 0 1105 2215 0 2215 0 0 -424 c0
-471 -2 -459 67 -472 26 -5 37 -1 57 19 l26 26 0 783 c0 676 -2 792 -16 843
-32 124 -122 233 -243 293 l-75 37 -157 3 -157 4 -4 78 c-6 98 -34 146 -103
180 -41 20 -58 22 -164 19 -116 -4 -120 -5 -158 -35 -55 -45 -72 -80 -79 -167
l-7 -77 -243 0 -244 0 -1 63 c-1 76 -15 117 -54 158 -45 48 -81 59 -200 59
-122 0 -156 -11 -202 -63 -37 -42 -53 -91 -53 -164 l0 -53 -245 0 -245 0 0 53
c0 75 -16 123 -57 168 -46 51 -86 62 -219 57 -98 -3 -115 -6 -147 -28 -54 -36
-87 -108 -87 -187 l0 -63 -244 0 -243 0 -7 77 c-7 87 -24 122 -79 167 -38 30
-41 31 -160 34 -109 3 -127 1 -165 -19z m248 -148 c6 -12 10 -94 10 -196 0
-102 -4 -184 -10 -196 -9 -16 -22 -19 -93 -19 -51 0 -88 5 -95 12 -17 17 -17
389 0 406 7 7 44 12 95 12 71 0 84 -3 93 -19z m1000 0 c6 -12 10 -94 10 -196
0 -102 -4 -184 -10 -196 -9 -16 -22 -19 -93 -19 -51 0 -88 5 -95 12 -17 17
-17 389 0 406 7 7 44 12 95 12 71 0 84 -3 93 -19z m998 7 c17 -17 17 -389 0
-406 -7 -7 -44 -12 -95 -12 -71 0 -84 3 -93 19 -6 12 -10 94 -10 196 0 102 4
184 10 196 9 16 22 19 93 19 51 0 88 -5 95 -12z m1000 0 c17 -17 17 -389 0
-406 -7 -7 -44 -12 -95 -12 -80 0 -84 1 -93 26 -6 14 -10 99 -10 189 0 90 4
175 10 189 9 25 13 26 93 26 51 0 88 -5 95 -12z m-3347 -340 c1 -89 14 -129
58 -173 42 -44 83 -55 199 -55 176 0 238 53 249 216 l6 84 243 0 244 0 0 -62
c0 -116 35 -183 115 -219 57 -26 223 -26 280 0 80 36 115 103 115 219 l0 62
245 0 245 0 0 -62 c0 -116 35 -183 115 -219 53 -24 218 -26 273 -4 84 36 121
101 122 213 l0 72 244 0 243 0 6 -84 c7 -94 21 -131 67 -170 47 -39 95 -49
212 -44 91 3 110 7 140 27 63 44 81 82 86 182 l4 89 127 0 c151 0 199 -13 266
-72 25 -22 58 -64 73 -92 l27 -51 3 -297 3 -298 -2216 0 -2216 0 3 293 c3 272
4 295 24 338 31 67 78 114 146 149 55 27 71 30 155 30 l93 0 1 -72z"/>
<path d="M531 3394 c-26 -33 -27 -65 -2 -95 19 -23 23 -24 186 -24 163 0 167
1 186 24 26 32 24 73 -4 99 -22 21 -33 22 -184 22 l-162 0 -20 -26z"/>
<path d="M1335 3395 c-28 -27 -30 -42 -14 -78 18 -40 50 -47 203 -47 130 0
146 2 170 21 33 26 36 79 6 109 -18 18 -33 20 -180 20 -157 0 -161 -1 -185
-25z"/>
<path d="M2142 3403 c-12 -10 -24 -30 -28 -45 -5 -22 0 -33 24 -58 l30 -30
150 0 c136 0 152 2 176 21 33 26 36 79 6 109 -18 18 -33 20 -179 20 -137 0
-162 -2 -179 -17z"/>
<path d="M2941 3402 c-33 -26 -31 -79 3 -109 26 -22 34 -23 175 -23 135 0 151
2 175 21 33 26 36 79 6 109 -18 18 -33 20 -179 20 -137 0 -162 -2 -180 -18z"/>
<path d="M3740 3400 c-30 -30 -27 -83 6 -109 24 -19 40 -21 175 -21 141 0 149
1 175 23 35 31 38 82 5 109 -20 16 -43 18 -182 18 -146 0 -161 -2 -179 -20z"/>
<path d="M564 3040 c-26 -10 -54 -48 -54 -71 0 -9 9 -28 21 -43 l20 -26 165 0
c151 0 166 2 184 20 38 38 22 100 -31 119 -37 13 -274 14 -305 1z"/>
<path d="M1364 3041 c-26 -11 -54 -49 -54 -72 0 -9 9 -28 21 -43 l20 -26 165
0 c151 0 166 2 184 20 25 25 26 71 1 101 -18 23 -25 24 -168 26 -81 2 -158 -1
-169 -6z"/>
<path d="M2173 3043 c-34 -7 -65 -52 -58 -83 15 -57 23 -60 206 -60 162 0 168
1 183 22 21 30 20 71 -3 99 -18 23 -25 24 -163 26 -78 0 -153 -1 -165 -4z"/>
<path d="M2974 3044 c-53 -12 -75 -84 -39 -124 17 -19 30 -20 185 -20 188 0
200 4 200 72 0 64 -21 73 -184 75 -77 0 -151 -1 -162 -3z"/>
<path d="M3775 3043 c-36 -9 -55 -34 -55 -73 0 -65 14 -70 202 -70 153 0 166
2 183 20 25 28 23 76 -4 103 -20 20 -32 22 -164 24 -78 1 -151 -1 -162 -4z"/>
<path d="M2975 2591 c-83 -21 -117 -51 -552 -485 l-443 -440 -108 107 c-130
128 -173 151 -277 150 -162 -1 -287 -123 -289 -283 -2 -121 9 -137 268 -398
267 -270 289 -285 406 -286 134 -1 114 -18 751 621 629 631 599 594 599 732 0
151 -115 271 -271 285 -30 3 -67 2 -84 -3z m143 -167 c56 -37 80 -132 48 -192
-8 -15 -261 -273 -563 -573 -585 -584 -568 -569 -651 -554 -31 6 -72 41 -260
228 -235 235 -252 258 -237 329 10 44 61 96 107 108 69 19 99 1 248 -145 74
-73 145 -136 157 -139 13 -4 34 -1 50 8 15 8 233 220 483 471 250 251 469 463
485 471 35 16 98 11 133 -12z"/>
<path d="M4605 2525 l-25 -24 0 -262 c0 -244 -1 -261 -17 -256 -10 3 -47 18
-82 32 -205 86 -499 86 -716 0 -166 -65 -350 -208 -450 -350 -185 -261 -233
-594 -130 -902 14 -40 25 -76 25 -78 0 -3 -461 -5 -1025 -5 -1012 0 -1025 0
-1045 -20 -27 -27 -26 -81 1 -106 20 -18 55 -19 1092 -22 943 -2 1072 -4 1080
-17 51 -92 223 -240 357 -309 160 -82 283 -110 465 -109 158 1 282 30 420 96
507 245 711 859 450 1354 -54 103 -112 178 -204 266 l-71 69 0 309 0 310 -25
24 c-13 14 -36 25 -50 25 -14 0 -37 -11 -50 -25z m-307 -611 c256 -53 493
-242 598 -480 52 -119 68 -199 68 -344 0 -139 -9 -192 -53 -311 -84 -223 -291
-417 -525 -493 -596 -194 -1194 317 -1095 934 54 338 322 622 654 693 94 20
257 21 353 1z"/>
<path d="M3940 1800 c-263 -68 -467 -278 -531 -547 -17 -72 -20 -108 -16 -198
9 -197 72 -339 212 -481 92 -93 172 -143 300 -187 83 -28 100 -31 220 -31 119
0 138 3 225 32 290 96 492 358 508 657 9 180 -42 344 -151 492 -94 126 -259
233 -414 267 -99 22 -258 20 -353 -4z m112 -205 c-3 -68 -2 -76 22 -100 14
-14 37 -25 51 -25 14 0 37 11 51 25 24 24 25 32 22 100 -2 41 1 75 6 75 4 0
35 -7 69 -16 208 -54 372 -222 421 -431 l14 -63 -79 0 c-66 0 -82 -3 -99 -20
-25 -25 -26 -71 -1 -101 17 -22 27 -24 100 -24 67 0 80 -3 77 -15 -3 -8 -7
-31 -11 -50 -4 -19 -25 -73 -47 -119 -68 -143 -206 -261 -357 -305 -91 -27
-91 -27 -91 57 0 88 -19 117 -75 117 -56 0 -75 -29 -75 -117 0 -84 0 -84 -91
-57 -141 42 -282 158 -351 289 -33 63 -44 94 -62 175 l-5 25 80 0 c73 0 83 2
100 24 25 30 24 72 -1 99 -18 19 -31 22 -100 22 l-78 0 14 62 c49 208 202 369
409 429 94 27 90 30 87 -56z"/>
<path d="M4070 1288 c-17 -19 -20 -35 -20 -124 0 -144 4 -148 147 -152 98 -3
111 -2 136 18 21 17 27 30 27 60 0 52 -26 70 -102 70 l-58 0 0 53 c0 66 -24
97 -75 97 -22 0 -41 -8 -55 -22z"/>
<path d="M24 1165 l-25 -25 3 -239 3 -238 28 -40 c15 -22 46 -50 70 -64 l42
-24 366 0 c347 0 368 1 388 19 27 25 28 79 1 106 -19 19 -33 20 -363 20 -294
0 -346 2 -365 16 -22 15 -22 19 -22 230 0 215 0 215 -25 239 -31 32 -69 32
-101 0z"/>
</g>
</svg>
