<?xml version="1.0" standalone="no"?>
<!DOCTYPE svg PUBLIC "-//W3C//DTD SVG 20010904//EN"
 "http://www.w3.org/TR/2001/REC-SVG-20010904/DTD/svg10.dtd">
<svg version="1.0" xmlns="http://www.w3.org/2000/svg"
   height="auto" viewBox="0 0 512.000000 512.000000"
 preserveAspectRatio="xMidYMid meet">

<g transform="translate(0.000000,512.000000) scale(0.100000,-0.100000)"
fill="#000000" stroke="none">
<path d="M2200 5114 c-412 -37 -816 -183 -1145 -412 -556 -387 -918 -991 -995
-1662 -16 -141 -14 -418 5 -566 90 -706 502 -1336 1113 -1705 68 -41 113 -62
134 -62 62 0 91 82 45 126 -13 12 -72 51 -131 87 -515 311 -883 858 -997 1480
-27 149 -37 444 -20 602 109 1005 865 1790 1873 1944 154 24 461 24 616 1 956
-147 1686 -857 1853 -1802 29 -167 37 -467 16 -628 -18 -130 -13 -156 30 -176
35 -16 49 -14 78 12 24 20 29 35 41 127 19 145 18 443 -2 599 -131 1032 -944
1859 -1979 2016 -106 16 -438 28 -535 19z"/>
<path d="M2122 4704 c-566 -82 -1055 -396 -1372 -879 -28 -44 -78 -134 -111
-200 -364 -744 -213 -1639 377 -2229 114 -114 258 -226 291 -226 36 0 59 15
72 49 17 39 1 69 -65 118 -28 21 -70 55 -94 76 l-44 37 46 48 c59 59 70 88 53
128 -27 64 -80 60 -153 -10 l-57 -55 -48 57 c-229 270 -390 656 -414 991 l-6
91 75 0 c94 0 122 17 122 75 0 58 -28 75 -122 75 l-75 0 6 91 c24 332 167 682
395 966 l66 82 57 -54 c74 -71 127 -75 154 -11 17 40 6 69 -52 128 l-46 46 38
34 c265 232 605 381 975 427 130 17 120 21 120 -56 0 -78 15 -114 51 -127 69
-24 109 23 109 129 0 75 -9 71 120 55 218 -27 411 -85 601 -181 147 -73 261
-149 377 -251 l34 -29 -50 -53 c-60 -63 -68 -85 -47 -125 31 -61 88 -54 159
18 l49 49 49 -56 c226 -261 391 -655 415 -991 l6 -91 -75 0 c-94 0 -122 -17
-122 -75 0 -57 28 -75 120 -75 l74 0 0 -47 c0 -27 -7 -93 -15 -147 -19 -127
-19 -123 10 -151 53 -54 116 -17 134 80 26 136 35 341 22 488 -42 492 -241
912 -592 1252 -305 294 -665 469 -1091 530 -127 18 -399 18 -526 -1z"/>
<path d="M2352 4073 c-7 -3 -19 -18 -27 -33 -13 -24 -15 -105 -15 -509 l0
-481 -34 -14 c-54 -22 -121 -91 -145 -147 -30 -68 -30 -160 0 -228 41 -97 153
-171 259 -171 103 0 219 75 257 165 l18 45 271 0 c251 0 274 1 295 19 32 26
32 86 0 112 -21 18 -44 19 -295 19 l-272 0 -12 34 c-18 49 -85 121 -137 146
l-45 22 0 472 c0 488 -3 526 -40 546 -20 10 -56 12 -78 3z m95 -1180 c97 -46
97 -190 0 -236 -19 -9 -45 -17 -57 -17 -12 0 -38 8 -57 17 -96 45 -97 189 -2
236 43 21 72 21 116 0z"/>
<path d="M1709 2145 c-52 -17 -108 -66 -132 -118 -16 -33 -17 -111 -15 -960
l3 -925 30 -44 c20 -28 49 -52 84 -71 l55 -27 1581 0 1581 0 55 27 c66 34 105
88 119 164 7 37 10 359 8 925 -3 966 1 904 -72 977 -71 71 36 67 -1695 66
-1309 0 -1563 -3 -1602 -14z m3193 -162 c17 -15 18 -57 18 -904 l0 -888 -26
-20 -27 -21 -1552 0 -1552 0 -27 21 -26 20 0 886 c0 811 1 888 17 905 15 17
78 18 1586 18 1447 0 1572 -1 1589 -17z"/>
<path d="M2104 1880 c-11 -4 -45 -36 -75 -71 -63 -74 -92 -101 -137 -130 -18
-12 -41 -38 -52 -60 -19 -36 -20 -61 -20 -540 0 -564 -2 -546 75 -599 43 -30
155 -145 155 -160 0 -4 17 -19 38 -32 l37 -23 428 0 429 0 24 28 c13 15 24 34
24 42 0 27 -23 63 -47 74 -16 7 -151 11 -421 11 l-397 0 -42 55 c-24 30 -68
74 -98 98 l-55 42 0 465 0 465 57 45 c31 25 75 68 98 97 l40 52 402 0 c221 1
409 4 418 7 24 10 46 60 39 89 -14 55 -12 55 -474 54 -234 0 -434 -4 -446 -9z"/>
<path d="M3612 1867 c-31 -33 -29 -80 4 -106 26 -20 37 -21 439 -21 l413 0 38
-50 c21 -28 64 -71 96 -97 l58 -46 0 -463 0 -462 -101 -101 -101 -101 -399 0
c-332 0 -405 -3 -428 -15 -68 -35 -48 -125 31 -140 18 -3 215 -5 438 -3 463 3
441 -1 510 93 23 31 71 79 107 107 38 30 71 66 79 85 21 48 20 1018 0 1067 -8
20 -37 51 -68 74 -56 42 -87 73 -132 135 -50 69 -36 67 -524 67 l-439 0 -21
-23z"/>
<path d="M3251 1744 c-12 -15 -21 -37 -21 -51 0 -14 -7 -26 -17 -29 -91 -28
-166 -87 -203 -161 -35 -70 -40 -185 -10 -247 27 -58 84 -108 165 -148 l65
-32 0 -214 0 -215 -40 6 c-21 3 -69 19 -104 37 -59 28 -68 30 -93 18 -37 -18
-56 -58 -43 -92 18 -47 128 -102 243 -121 28 -4 37 -11 37 -25 0 -32 21 -67
47 -79 34 -16 47 -14 77 10 19 15 26 30 26 55 0 28 5 36 28 45 125 48 203 116
250 217 34 75 37 183 5 253 -41 91 -126 160 -245 198 l-38 13 0 163 c0 90 4
166 9 169 5 3 35 -8 66 -24 72 -38 107 -39 134 -4 38 49 24 90 -45 130 -25 15
-71 34 -102 44 -50 16 -57 21 -63 49 -10 46 -27 61 -69 61 -30 0 -43 -6 -59
-26z m-25 -491 c-8 -8 -75 37 -86 57 -28 52 0 144 55 180 l30 20 3 -126 c1
-70 0 -129 -2 -131z m285 -320 c38 -61 23 -158 -35 -221 -22 -25 -67 -52 -86
-52 -11 0 -15 342 -4 353 13 12 105 -47 125 -80z"/>
</g>
</svg>
